<svg width="30" height="21" viewBox="0 0 30 21" fill="none" xmlns="http://www.w3.org/2000/svg">
<path d="M5 3.5H7.51116C8.02519 3.5 8.28221 3.5 8.49395 3.6063C8.58266 3.65084 8.66424 3.70833 8.73601 3.77689C8.90734 3.94054 8.99378 4.18258 9.16667 4.66667V4.66667C9.51244 5.63484 9.68533 6.11892 10.028 6.44623C10.1715 6.58335 10.3347 6.69833 10.5121 6.7874C10.9356 7 11.4571 7 12.5 7V7" stroke="#252525" stroke-width="2" stroke-linecap="round"/>
<path d="M22.5 14.875H9.11763C9.08789 14.875 9.07301 14.875 9.06225 14.8748C8.34602 14.8593 7.87787 14.1179 8.17187 13.4646C8.17629 13.4548 8.18269 13.4414 8.19548 13.4145V13.4145C8.20666 13.391 8.21226 13.3793 8.21756 13.3685C8.54993 12.6916 9.23473 12.2592 9.98873 12.2501C10.0008 12.25 10.0138 12.25 10.0398 12.25H17.5" stroke="#252525" stroke-width="2" stroke-linecap="round" stroke-linejoin="round"/>
<path d="M19.1915 12.25H12.4507C11.6215 12.25 11.2069 12.25 10.8591 12.1157C10.4832 11.9705 10.16 11.7152 9.93167 11.3831C9.72046 11.0759 9.62443 10.6726 9.43238 9.86598C9.21187 8.93987 9.10162 8.47681 9.20093 8.10901C9.30791 7.71276 9.5726 7.37765 9.93329 7.1818C10.2681 7 10.7441 7 11.6961 7H21.1136C22.8158 7 23.6668 7 23.946 7.54242C24.2251 8.08484 23.7304 8.77738 22.7411 10.1625L22.4465 10.575C21.8599 11.3961 21.5667 11.8067 21.1359 12.0283C20.7052 12.25 20.2006 12.25 19.1915 12.25Z" stroke="white" stroke-width="2" stroke-linecap="round"/>
<ellipse cx="21.25" cy="17.5" rx="1.25" ry="0.875" fill="#252525"/>
<ellipse cx="11.25" cy="17.5" rx="1.25" ry="0.875" fill="#252525"/>
</svg>
