<svg width="133" height="24" viewBox="0 0 133 24" fill="1" xmlns="http://www.w3.org/2000/svg">
<path d="M11.1961 3.56696C11.6358 2.62337 12.9775 2.62337 13.4172 3.56696L14.8561 6.65479C15.1803 7.35066 15.8404 7.83023 16.6024 7.92359L19.9838 8.33786C21.017 8.46446 21.4316 9.74046 20.6701 10.4502L18.1781 12.7729C17.6164 13.2963 17.3643 14.0723 17.511 14.8259L18.1619 18.1697C18.3608 19.1915 17.2754 19.9802 16.365 19.4752L13.3859 17.8229C12.7146 17.4505 11.8987 17.4505 11.2273 17.8229L8.24827 19.4752C7.33791 19.9802 6.25248 19.1915 6.45138 18.1697L7.10228 14.8258C7.24896 14.0723 6.99684 13.2963 6.43523 12.7729L3.94317 10.4502C3.18163 9.74046 3.59623 8.46446 4.62952 8.33786L8.01086 7.92359C8.77288 7.83023 9.43295 7.35066 9.75721 6.65479L11.1961 3.56696Z" fill="white" stroke="#FFB547"/>
<path d="M38.1961 3.56696C38.6358 2.62337 39.9775 2.62337 40.4172 3.56696L41.8561 6.65479C42.1803 7.35066 42.8404 7.83023 43.6024 7.92359L46.9838 8.33786C48.017 8.46446 48.4316 9.74046 47.6701 10.4502L45.1781 12.7729C44.6164 13.2963 44.3643 14.0723 44.511 14.8259L45.1619 18.1697C45.3608 19.1915 44.2754 19.9802 43.365 19.4752L40.3859 17.8229C39.7146 17.4505 38.8987 17.4505 38.2273 17.8229L35.2483 19.4752C34.3379 19.9802 33.2525 19.1915 33.4514 18.1697L34.1023 14.8258C34.249 14.0723 33.9968 13.2963 33.4352 12.7729L30.9432 10.4502C30.1816 9.74046 30.5962 8.46446 31.6295 8.33786L35.0109 7.92359C35.7729 7.83023 36.4329 7.35066 36.7572 6.65479L38.1961 3.56696Z" fill="white" stroke="#FFB547"/>
<path d="M65.1961 3.56696C65.6358 2.62337 66.9775 2.62337 67.4172 3.56696L68.8561 6.65479C69.1803 7.35066 69.8404 7.83023 70.6024 7.92359L73.9838 8.33786C75.017 8.46446 75.4316 9.74046 74.6701 10.4502L72.1781 12.7729C71.6164 13.2963 71.3643 14.0723 71.511 14.8259L72.1619 18.1697C72.3608 19.1915 71.2754 19.9802 70.365 19.4752L67.3859 17.8229C66.7146 17.4505 65.8987 17.4505 65.2273 17.8229L62.2483 19.4752C61.3379 19.9802 60.2525 19.1915 60.4514 18.1697L61.1023 14.8258C61.249 14.0723 60.9968 13.2963 60.4352 12.7729L57.9432 10.4502C57.1816 9.74046 57.5962 8.46446 58.6295 8.33786L62.0109 7.92359C62.7729 7.83023 63.4329 7.35066 63.7572 6.65479L65.1961 3.56696Z" fill="white" stroke="#FFB547"/>
<path d="M92.1961 3.56696C92.6358 2.62337 93.9775 2.62337 94.4172 3.56696L95.8561 6.65479C96.1803 7.35066 96.8404 7.83023 97.6024 7.92359L100.984 8.33786C102.017 8.46446 102.432 9.74046 101.67 10.4502L99.1781 12.7729C98.6164 13.2963 98.3643 14.0723 98.511 14.8259L99.1619 18.1697C99.3608 19.1915 98.2754 19.9802 97.365 19.4752L94.3859 17.8229C93.7146 17.4505 92.8987 17.4505 92.2273 17.8229L89.2483 19.4752C88.3379 19.9802 87.2525 19.1915 87.4514 18.1697L88.1023 14.8258C88.249 14.0723 87.9968 13.2963 87.4352 12.7729L84.9432 10.4502C84.1816 9.74046 84.5962 8.46446 85.6295 8.33786L89.0109 7.92359C89.7729 7.83023 90.4329 7.35066 90.7572 6.65479L92.1961 3.56696Z" fill="white" stroke="#FFB547"/>
<path d="M119.196 3.56696C119.636 2.62337 120.977 2.62337 121.417 3.56696L122.856 6.65479C123.18 7.35066 123.84 7.83023 124.602 7.92359L127.984 8.33786C129.017 8.46446 129.432 9.74046 128.67 10.4502L126.178 12.7729C125.616 13.2963 125.364 14.0723 125.511 14.8259L126.162 18.1697C126.361 19.1915 125.275 19.9802 124.365 19.4752L121.386 17.8229C120.715 17.4505 119.899 17.4505 119.227 17.8229L116.248 19.4752C115.338 19.9802 114.252 19.1915 114.451 18.1697L115.102 14.8258C115.249 14.0723 114.997 13.2963 114.435 12.7729L111.943 10.4502C111.182 9.74046 111.596 8.46446 112.63 8.33786L116.011 7.92359C116.773 7.83023 117.433 7.35066 117.757 6.65479L119.196 3.56696Z" fill="url(#paint0_linear_563_517)" stroke="#FFB547"/>
<defs>
<linearGradient id="paint0_linear_563_517" x1="119.426" y1="11.8505" x2="128.185" y2="11.8505" gradientUnits="userSpaceOnUse">
<stop offset="0.394791" stop-color="white"/>
<stop offset="0.394891" stop-color="#FFB547" stop-opacity="0"/>
</linearGradient>
</defs>
</svg>
