<svg width="132" height="24" viewBox="0 0 132 24" fill="none" xmlns="http://www.w3.org/2000/svg">
<path d="M10.4363 3.35577C11.0554 2.0271 12.9446 2.0271 13.5637 3.35577L15.0026 6.4436C15.254 6.98311 15.7658 7.35492 16.3566 7.4273L19.7379 7.84158C21.1929 8.01983 21.7767 9.81657 20.7044 10.816L18.2123 13.1387C17.7769 13.5445 17.5814 14.1461 17.6952 14.7303L18.346 18.0742C18.6261 19.513 17.0977 20.6235 15.8159 19.9125L12.8368 18.2601C12.3163 17.9714 11.6837 17.9714 11.1632 18.2601L8.18415 19.9125C6.90227 20.6235 5.37388 19.513 5.65395 18.0742L6.30485 14.7303C6.41857 14.1461 6.2231 13.5445 5.78768 13.1387L3.29562 10.816C2.22331 9.81657 2.8071 8.01983 4.26207 7.84158L7.64342 7.4273C8.23421 7.35492 8.74596 6.98311 8.99736 6.4436L10.4363 3.35577Z" fill="#FFB547"/>
<path d="M37.4363 3.35577C38.0554 2.0271 39.9446 2.0271 40.5637 3.35577L42.0026 6.4436C42.254 6.98311 42.7658 7.35492 43.3566 7.4273L46.7379 7.84158C48.1929 8.01983 48.7767 9.81657 47.7044 10.816L45.2123 13.1387C44.7769 13.5445 44.5814 14.1461 44.6952 14.7303L45.346 18.0742C45.6261 19.513 44.0977 20.6235 42.8159 19.9125L39.8368 18.2601C39.3163 17.9714 38.6837 17.9714 38.1632 18.2601L35.1841 19.9125C33.9023 20.6235 32.3739 19.513 32.654 18.0742L33.3048 14.7303C33.4186 14.1461 33.2231 13.5445 32.7877 13.1387L30.2956 10.816C29.2233 9.81657 29.8071 8.01983 31.2621 7.84158L34.6434 7.4273C35.2342 7.35492 35.746 6.98311 35.9974 6.4436L37.4363 3.35577Z" fill="#FFB547"/>
<path d="M64.4363 3.35577C65.0554 2.0271 66.9446 2.0271 67.5637 3.35577L69.0026 6.4436C69.254 6.98311 69.7658 7.35492 70.3566 7.4273L73.7379 7.84158C75.1929 8.01983 75.7767 9.81657 74.7044 10.816L72.2123 13.1387C71.7769 13.5445 71.5814 14.1461 71.6952 14.7303L72.346 18.0742C72.6261 19.513 71.0977 20.6235 69.8159 19.9125L66.8368 18.2601C66.3163 17.9714 65.6837 17.9714 65.1632 18.2601L62.1841 19.9125C60.9023 20.6235 59.3739 19.513 59.654 18.0742L60.3048 14.7303C60.4186 14.1461 60.2231 13.5445 59.7877 13.1387L57.2956 10.816C56.2233 9.81657 56.8071 8.01983 58.2621 7.84158L61.6434 7.4273C62.2342 7.35492 62.746 6.98311 62.9974 6.4436L64.4363 3.35577Z" fill="#FFB547"/>
<path d="M91.4363 3.35577C92.0554 2.0271 93.9446 2.0271 94.5637 3.35577L96.0026 6.4436C96.254 6.98311 96.7658 7.35492 97.3566 7.4273L100.738 7.84158C102.193 8.01983 102.777 9.81657 101.704 10.816L99.2123 13.1387C98.7769 13.5445 98.5814 14.1461 98.6952 14.7303L99.346 18.0742C99.6261 19.513 98.0977 20.6235 96.8159 19.9125L93.8368 18.2601C93.3163 17.9714 92.6837 17.9714 92.1632 18.2601L89.1841 19.9125C87.9023 20.6235 86.3739 19.513 86.654 18.0742L87.3048 14.7303C87.4186 14.1461 87.2231 13.5445 86.7877 13.1387L84.2956 10.816C83.2233 9.81657 83.8071 8.01983 85.2621 7.84158L88.6434 7.4273C89.2342 7.35492 89.746 6.98311 89.9974 6.4436L91.4363 3.35577Z" fill="#FFB547"/>
<path d="M118.889 3.56696C119.329 2.62337 120.671 2.62337 121.111 3.56696L122.549 6.65479C122.874 7.35066 123.534 7.83023 124.296 7.92359L127.677 8.33786C128.71 8.46446 129.125 9.74046 128.363 10.4502L125.871 12.7729C125.31 13.2963 125.058 14.0723 125.204 14.8259L125.855 18.1697C126.054 19.1915 124.969 19.9802 124.058 19.4752L121.079 17.8229C120.408 17.4505 119.592 17.4505 118.921 17.8229L115.942 19.4752C115.031 19.9802 113.946 19.1915 114.145 18.1697L114.796 14.8258C114.942 14.0723 114.69 13.2963 114.129 12.7729L111.637 10.4502C110.875 9.74046 111.29 8.46446 112.323 8.33786L115.704 7.92359C116.466 7.83023 117.126 7.35066 117.451 6.65479L118.889 3.56696Z" fill="url(#paint0_linear_563_505)" stroke="#FFB547"/>
<defs>
<linearGradient id="paint0_linear_563_505" x1="119.119" y1="11.8505" x2="127.878" y2="11.8505" gradientUnits="userSpaceOnUse">
<stop offset="0.394791" stop-color="white"/>
<stop offset="0.394891" stop-color="#FFB547" stop-opacity="0"/>
</linearGradient>
</defs>
</svg>
