<svg width="32" height="28" viewBox="0 0 32 28" fill="none" xmlns="http://www.w3.org/2000/svg">
<path d="M26.0559 23.0587C26.9844 23.9882 26.9844 25.4943 26.0559 26.4223C25.1274 27.3518 23.6229 27.3518 22.6959 26.4223C21.7674 25.4928 21.7674 23.9867 22.6959 23.0587C23.6244 22.1292 25.1289 22.1292 26.0559 23.0587" stroke="#505050" stroke-width="1.5" stroke-linecap="round" stroke-linejoin="round"/>
<path d="M9.55581 23.0586C10.4843 23.9881 10.4843 25.4942 9.55581 26.4222C8.62731 27.3517 7.12281 27.3517 6.19581 26.4222C5.26881 25.4927 5.26731 23.9866 6.19581 23.0586C7.12431 22.1306 8.62731 22.1291 9.55581 23.0586" stroke="#505050" stroke-width="1.5" stroke-linecap="round" stroke-linejoin="round"/>
<path d="M13 1.59155H19C19.828 1.59155 20.5 2.26427 20.5 3.09316V18.1093H1" stroke="#505050" stroke-width="1.5" stroke-linecap="round" stroke-linejoin="round"/>
<path d="M5.5 24.7405H2.5C1.672 24.7405 1 24.0678 1 23.2389V15.1062" stroke="#505050" stroke-width="1.5" stroke-linecap="round" stroke-linejoin="round"/>
<path d="M20.5 6.09644H26.9845C27.598 6.09644 28.15 6.47034 28.3765 7.04095L30.7855 13.0684C30.9265 13.4228 31 13.8012 31 14.1826V23.1142C31 23.9431 30.328 24.6158 29.5 24.6158H26.7535" stroke="#505050" stroke-width="1.5" stroke-linecap="round" stroke-linejoin="round"/>
<path d="M21.9999 24.7464H10.2549" stroke="#505050" stroke-width="1.5" stroke-linecap="round" stroke-linejoin="round"/>
<path d="M31 16.6078H25V10.6013H29.8" stroke="#505050" stroke-width="1.5" stroke-linecap="round" stroke-linejoin="round"/>
<path d="M1 1.59163H8.5" stroke="#505050" stroke-width="1.5" stroke-linecap="round" stroke-linejoin="round"/>
<path d="M1 6.09651H5.5" stroke="#505050" stroke-width="1.5" stroke-linecap="round" stroke-linejoin="round"/>
<path d="M2.5 10.6014H1" stroke="#505050" stroke-width="1.5" stroke-linecap="round" stroke-linejoin="round"/>
</svg>
