<svg width="76" height="76" viewBox="0 0 76 76" fill="none" xmlns="http://www.w3.org/2000/svg">
<path d="M0 38C0 17.0132 17.0132 0 38 0C58.9868 0 76 17.0132 76 38V76H38C17.0132 76 0 58.9868 0 38Z" fill="#FE724C"/>
<path d="M35.3022 34.5621C35.1306 34.0236 34.8997 33.5412 34.6097 33.1151C34.3256 32.683 33.9853 32.3161 33.5888 32.0142C33.1922 31.7064 32.7395 31.4727 32.2305 31.3129C31.7274 31.1531 31.174 31.0732 30.5703 31.0732C29.5464 31.0732 28.6231 31.3365 27.8004 31.8633C26.9777 32.39 26.3267 33.1624 25.8473 34.1804C25.3738 35.1925 25.1371 36.4324 25.1371 37.9002C25.1371 39.3739 25.3768 40.6198 25.8562 41.6378C26.3356 42.6558 26.9925 43.4281 27.8271 43.9549C28.6616 44.4817 29.6115 44.745 30.6768 44.745C31.6652 44.745 32.5264 44.5438 33.2603 44.1413C34.0001 43.7389 34.5713 43.1707 34.9737 42.4368C35.3821 41.697 35.5863 40.8269 35.5863 39.8267L36.2965 39.9599H31.0941V37.696H38.2408V39.7646C38.2408 41.2915 37.9152 42.6173 37.2642 43.7418C36.6191 44.8604 35.7254 45.7246 34.5831 46.3342C33.4467 46.9438 32.1446 47.2486 30.6768 47.2486C29.0315 47.2486 27.5874 46.8698 26.3445 46.1122C25.1075 45.3546 24.1428 44.2804 23.4503 42.8896C22.7578 41.4928 22.4116 39.8356 22.4116 37.918C22.4116 36.4679 22.6128 35.1658 23.0153 34.0117C23.4177 32.8576 23.983 31.8781 24.7109 31.0732C25.4448 30.2623 26.306 29.6438 27.2944 29.2177C28.2887 28.7856 29.3748 28.5696 30.5526 28.5696C31.535 28.5696 32.4495 28.7146 33.2958 29.0046C34.1481 29.2946 34.9057 29.706 35.5685 30.2386C36.2373 30.7713 36.7907 31.4046 37.2287 32.1385C37.6667 32.8665 37.9626 33.6744 38.1165 34.5621H35.3022ZM46.754 47.2752C45.4756 47.2752 44.3599 46.9822 43.407 46.3963C42.4542 45.8104 41.7143 44.9906 41.1876 43.9371C40.6608 42.8836 40.3975 41.6526 40.3975 40.244C40.3975 38.8294 40.6608 37.5924 41.1876 36.533C41.7143 35.4736 42.4542 34.6509 43.407 34.065C44.3599 33.479 45.4756 33.1861 46.754 33.1861C48.0324 33.1861 49.1481 33.479 50.1009 34.065C51.0538 34.6509 51.7936 35.4736 52.3204 36.533C52.8472 37.5924 53.1105 38.8294 53.1105 40.244C53.1105 41.6526 52.8472 42.8836 52.3204 43.9371C51.7936 44.9906 51.0538 45.8104 50.1009 46.3963C49.1481 46.9822 48.0324 47.2752 46.754 47.2752ZM46.7629 45.0469C47.5915 45.0469 48.278 44.8279 48.8225 44.3899C49.367 43.9519 49.7695 43.369 50.0299 42.641C50.2963 41.913 50.4294 41.111 50.4294 40.2351C50.4294 39.3651 50.2963 38.5661 50.0299 37.8381C49.7695 37.1042 49.367 36.5153 48.8225 36.0714C48.278 35.6275 47.5915 35.4055 46.7629 35.4055C45.9284 35.4055 45.2359 35.6275 44.6855 36.0714C44.141 36.5153 43.7355 37.1042 43.4692 37.8381C43.2088 38.5661 43.0786 39.3651 43.0786 40.2351C43.0786 41.111 43.2088 41.913 43.4692 42.641C43.7355 43.369 44.141 43.9519 44.6855 44.3899C45.2359 44.8279 45.9284 45.0469 46.7629 45.0469Z" fill="white"/>
</svg>
