<svg width="35" height="35" viewBox="0 0 35 35" fill="none" xmlns="http://www.w3.org/2000/svg">
<path d="M34.2833 13.9198H32.889V13.848H17.31V20.772H27.0927C25.6655 24.8026 21.8305 27.696 17.31 27.696C11.5743 27.696 6.924 23.0457 6.924 17.31C6.924 11.5743 11.5743 6.924 17.31 6.924C19.9576 6.924 22.3663 7.92278 24.2002 9.55425L29.0964 4.65812C26.0048 1.77687 21.8695 0 17.31 0C7.75055 0 0 7.75055 0 17.31C0 26.8694 7.75055 34.62 17.31 34.62C26.8694 34.62 34.62 26.8694 34.62 17.31C34.62 16.1494 34.5006 15.0164 34.2833 13.9198Z" fill="#FFC107"/>
<path d="M1.99585 9.25306L7.68305 13.4239C9.22191 9.61397 12.9488 6.924 17.31 6.924C19.9576 6.924 22.3663 7.92278 24.2003 9.55425L29.0964 4.65812C26.0048 1.77687 21.8695 0 17.31 0C10.6612 0 4.89527 3.75367 1.99585 9.25306Z" fill="#FF3D00"/>
<path d="M17.31 34.6199C21.7812 34.6199 25.8438 32.9088 28.9155 30.1262L23.5581 25.5927C21.7617 26.9588 19.5668 27.6977 17.31 27.6959C12.8077 27.6959 8.98476 24.825 7.54457 20.8186L1.89978 25.1677C4.76459 30.7736 10.5825 34.6199 17.31 34.6199Z" fill="#4CAF50"/>
<path d="M34.2833 13.9197H32.889V13.8479H17.31V20.7719H27.0927C26.41 22.6902 25.1803 24.3665 23.5554 25.5936L23.558 25.5919L28.9155 30.1254C28.5364 30.4698 34.62 25.9649 34.62 17.3099C34.62 16.1493 34.5006 15.0163 34.2833 13.9197Z" fill="#1976D2"/>
</svg>
