<svg width="34" height="35" viewBox="0 0 34 35" fill="none" xmlns="http://www.w3.org/2000/svg">
<path fill-rule="evenodd" clip-rule="evenodd" d="M19.9156 6.63508C18.2196 5.24594 15.7805 5.24594 14.0845 6.63508L5.33705 13.7998C4.67219 14.3443 4.91173 15.4148 5.74512 15.6234C7.15606 15.9765 8.14587 17.2456 8.14587 18.7015V25.5638C8.14587 28.1094 10.2072 30.1729 12.75 30.1729H21.25C23.7929 30.1729 25.8542 28.1094 25.8542 25.5638V18.7015C25.8542 17.2456 26.844 15.9765 28.255 15.6234C29.0884 15.4148 29.3279 14.3443 28.663 13.7998L19.9156 6.63508ZM12.7389 4.98865C15.2177 2.95837 18.7824 2.95837 21.2612 4.98866L30.0087 12.1534C32.0262 13.8059 31.2993 17.0542 28.7703 17.6871C28.3054 17.8035 27.9792 18.2217 27.9792 18.7015V25.5638C27.9792 29.2842 24.9665 32.3002 21.25 32.3002H12.75C9.03362 32.3002 6.02087 29.2842 6.02087 25.5638V18.7015C6.02087 18.2217 5.69469 17.8035 5.22973 17.6871C2.70077 17.0542 1.97387 13.8059 3.99142 12.1534L12.7389 4.98865Z" fill="#707B81"/>
<path fill-rule="evenodd" clip-rule="evenodd" d="M16.9998 20.9548C16.0218 20.9548 15.229 21.7485 15.229 22.7275C15.229 23.7066 16.0218 24.5003 16.9998 24.5003C17.9778 24.5003 18.7707 23.7066 18.7707 22.7275C18.7707 21.7485 17.9778 20.9548 16.9998 20.9548ZM13.104 22.7275C13.104 20.5736 14.8482 18.8275 16.9998 18.8275C19.1514 18.8275 20.8957 20.5736 20.8957 22.7275C20.8957 24.8815 19.1514 26.6275 16.9998 26.6275C14.8482 26.6275 13.104 24.8815 13.104 22.7275Z" fill="#707B81"/>
</svg>
