<svg width="34" height="35" viewBox="0 0 34 35" fill="none" xmlns="http://www.w3.org/2000/svg">
<path fill-rule="evenodd" clip-rule="evenodd" d="M10.4632 22.2598C8.78157 23.1015 8.146 24.0676 8.146 24.8183C8.146 25.5691 8.78157 26.5351 10.4632 27.3768C12.0812 28.1867 14.3909 28.7183 17.0002 28.7183C19.6094 28.7183 21.9191 28.1867 23.5371 27.3768C25.2188 26.5351 25.8543 25.5691 25.8543 24.8183C25.8543 24.0676 25.2188 23.1015 23.5371 22.2598C21.9191 21.4499 19.6094 20.9183 17.0002 20.9183C14.3909 20.9183 12.0812 21.4499 10.4632 22.2598ZM9.51286 20.3571C11.4839 19.3705 14.1326 18.791 17.0002 18.791C19.8678 18.791 22.5164 19.3705 24.4875 20.3571C26.395 21.3119 27.9793 22.8277 27.9793 24.8183C27.9793 26.8089 26.395 28.3247 24.4875 29.2795C22.5164 30.2661 19.8678 30.8456 17.0002 30.8456C14.1326 30.8456 11.4839 30.2661 9.51286 29.2795C7.60534 28.3247 6.021 26.8089 6.021 24.8183C6.021 22.8277 7.60534 21.3119 9.51286 20.3571Z" fill="#505050"/>
<path fill-rule="evenodd" clip-rule="evenodd" d="M17.0002 5.3182C14.4574 5.3182 12.396 7.38177 12.396 9.92731C12.396 12.4729 14.4574 14.5364 17.0002 14.5364C19.543 14.5364 21.6043 12.4729 21.6043 9.92731C21.6043 7.38177 19.543 5.3182 17.0002 5.3182ZM10.271 9.92731C10.271 6.2069 13.2837 3.19092 17.0002 3.19092C20.7166 3.19092 23.7293 6.2069 23.7293 9.92731C23.7293 13.6477 20.7166 16.6637 17.0002 16.6637C13.2837 16.6637 10.271 13.6477 10.271 9.92731Z" fill="#505050"/>
</svg>
