<svg width="26" height="26" viewBox="0 0 26 26" fill="none" xmlns="http://www.w3.org/2000/svg">
<path d="M1.72863 3.38827C1.49508 3.95209 1.49507 4.66691 1.49505 6.09641C1.49503 7.5256 1.49502 8.24071 1.72853 8.80446C2.03991 9.55622 2.63724 10.1536 3.38901 10.4649C3.95283 10.6985 4.6676 10.6985 6.09714 10.6984C7.52588 10.6984 8.24157 10.6984 8.80524 10.4649C9.557 10.1535 10.1527 9.25177 10.4641 8.5C10.6976 7.93617 10.6993 7.52582 10.6993 6.09627C10.6993 4.66673 10.6983 3.953 10.4648 3.38918C10.1534 2.63742 9.55605 2.04009 8.80429 1.72871C8.24046 1.49517 7.5268 1.49419 6.09726 1.49421C4.66773 1.49423 3.95294 1.49423 3.38911 1.72778C2.63735 2.03918 2.04003 2.6365 1.72863 3.38827Z" stroke="#FF4700" stroke-width="2" stroke-linecap="round" stroke-linejoin="round"/>
<path d="M1.72793 17.1947C1.49438 17.7586 1.49437 18.4733 1.49435 19.9029C1.49434 21.332 1.49433 22.0472 1.72783 22.6109C2.03921 23.3627 2.63654 23.96 3.38831 24.2714C3.95212 24.5049 4.66691 24.5049 6.09644 24.5049C7.52517 24.5049 8.24087 24.5049 8.80454 24.2714C9.5563 23.96 10.1536 23.3626 10.465 22.6109C10.6986 22.0471 10.6986 21.3323 10.6986 19.9027C10.6986 18.4732 10.6976 17.7595 10.4641 17.1956C10.1527 16.4439 9.55534 15.8466 8.80358 15.5352C8.23976 15.3016 7.5261 15.3007 6.09656 15.3007C4.66702 15.3007 3.95224 15.3007 3.38841 15.5342C2.63664 15.8456 2.03933 16.443 1.72793 17.1947Z" stroke="#FF4700" stroke-width="2" stroke-linecap="round" stroke-linejoin="round"/>
<path d="M15.3015 6.09571C15.3015 7.52488 15.3015 8.24001 15.535 8.80376C15.8464 9.55552 16.4437 10.1529 17.1955 10.4642C17.7593 10.6978 18.4741 10.6978 19.9036 10.6977C21.3323 10.6977 22.048 10.6977 22.6117 10.4642C23.3635 10.1528 23.9608 9.55549 24.2722 8.80372C24.5058 8.23989 24.5058 7.52512 24.5058 6.09557C24.5058 4.66605 24.5048 3.9523 24.2712 3.38848C23.9598 2.63672 23.3625 2.03939 22.6107 1.728C22.0469 1.49447 21.3332 1.49349 19.9037 1.49351C18.4742 1.49352 17.7594 1.49353 17.1956 1.72708C16.4438 2.03848 15.8465 2.6358 15.5351 3.38757C15.3015 3.95139 15.3015 4.66619 15.3015 6.09571Z" stroke="#FF4700" stroke-width="2" stroke-linecap="round" stroke-linejoin="round"/>
<path d="M15.5349 17.1946C15.3014 17.7584 15.3014 18.4732 15.3013 19.9027C15.3013 21.3319 15.3013 22.047 15.5348 22.6108C15.8462 23.3625 16.4435 23.9598 17.1953 24.2712C17.7591 24.5048 18.4739 24.5048 19.9034 24.5047C21.3322 24.5047 22.0479 24.5047 22.6115 24.2712C23.3633 23.9598 23.9606 23.3625 24.272 22.6107C24.5056 22.0469 24.5056 21.3321 24.5056 19.9026C24.5056 18.473 24.5046 17.7593 24.2711 17.1955C23.9597 16.4437 23.3623 15.8464 22.6106 15.535C22.0468 15.3015 21.3331 15.3005 19.9035 15.3005C18.474 15.3005 17.7592 15.3005 17.1954 15.5341C16.4436 15.8455 15.8463 16.4428 15.5349 17.1946Z" stroke="#FF4700" stroke-width="2" stroke-linecap="round" stroke-linejoin="round"/>
</svg>
