<svg width="32" height="32" viewBox="0 0 32 32" fill="none" xmlns="http://www.w3.org/2000/svg">
<circle cx="16" cy="16" r="16" fill="#FE5919"/>
<path d="M11.6094 12H11.3203C10.3572 12 9.87591 12 9.48535 12.1752C9.14108 12.3296 8.84778 12.5784 8.63884 12.8926C8.40181 13.249 8.32213 13.7239 8.1638 14.6738L7.23047 20.2738L7.23009 20.2759C7.01666 21.5565 6.90988 22.1972 7.09533 22.6965C7.25815 23.1348 7.56995 23.5022 7.97559 23.7349C8.43782 24 9.08714 24 10.3867 24H20.8318C22.1314 24 22.7817 24 23.244 23.7349C23.6496 23.5022 23.9607 23.1348 24.1235 22.6965C24.3089 22.1974 24.2021 21.557 23.9889 20.2774L23.988 20.2738L23.0547 14.6738C22.8964 13.7239 22.8171 13.249 22.5801 12.8926C22.3711 12.5784 22.0776 12.3296 21.7333 12.1752C21.3428 12 20.8618 12 19.8987 12H19.6094M11.6094 12H19.6094M11.6094 12C11.6094 9.79086 13.4002 8 15.6094 8C17.8185 8 19.6094 9.79086 19.6094 12" stroke="white" stroke-width="2" stroke-linecap="round" stroke-linejoin="round"/>
</svg>
