<svg width="28" height="28" viewBox="0 0 28 28" fill="none" xmlns="http://www.w3.org/2000/svg">
<circle cx="14" cy="14" r="14" fill="white"/>
<path d="M10.1582 10.5H9.90527C9.06258 10.5 8.64142 10.5 8.29968 10.6533C7.99844 10.7884 7.74181 11.0061 7.55899 11.281C7.35159 11.5929 7.28186 12.0084 7.14333 12.8396L6.32666 17.7396L6.32633 17.7414C6.13957 18.862 6.04614 19.4225 6.20841 19.8594C6.35088 20.243 6.62371 20.5644 6.97864 20.768C7.38309 21 7.95124 21 9.08838 21H18.2278C19.3649 21 19.934 21 20.3385 20.768C20.6934 20.5644 20.9656 20.243 21.108 19.8594C21.2703 19.4227 21.1769 18.8624 20.9903 17.7427L20.9895 17.7396L20.1729 12.8396C20.0343 12.0084 19.965 11.5929 19.7576 11.281C19.5747 11.0061 19.3179 10.7884 19.0167 10.6533C18.6749 10.5 18.2541 10.5 17.4114 10.5H17.1582M10.1582 10.5H17.1582M10.1582 10.5C10.1582 8.567 11.7252 7 13.6582 7C15.5912 7 17.1582 8.567 17.1582 10.5" stroke="black" stroke-width="2" stroke-linecap="round" stroke-linejoin="round"/>
</svg>
