<svg width="25" height="32" viewBox="0 0 25 32" fill="none" xmlns="http://www.w3.org/2000/svg">
<path d="M1.61061 3.63449C1.38484 4.34571 1.38483 5.2474 1.38482 7.05063C1.3848 8.85345 1.38479 9.75552 1.61051 10.4666C1.91152 11.4149 2.48894 12.1684 3.21564 12.5612C3.76066 12.8558 4.45161 12.8558 5.83351 12.8558C7.21462 12.8558 7.90645 12.8557 8.45133 12.5612C9.17804 12.1684 9.75547 11.4149 10.0565 10.4666C10.2823 9.75536 10.2823 8.85373 10.2823 7.05045C10.2823 5.24718 10.2813 4.34686 10.0555 3.63564C9.75453 2.68735 9.17711 1.93385 8.45041 1.54107C7.90538 1.24648 7.21551 1.24523 5.83362 1.24526C4.45174 1.24528 3.76077 1.24529 3.21574 1.5399C2.48903 1.93271 1.91163 2.68618 1.61061 3.63449Z" stroke="black" stroke-width="2" stroke-linecap="round" stroke-linejoin="round"/>
<path d="M1.60993 21.0504C1.38416 21.7616 1.38416 22.6633 1.38414 24.4665C1.38412 26.2693 1.38412 27.1714 1.60983 27.8826C1.91084 28.8309 2.48826 29.5843 3.21496 29.9771C3.75999 30.2717 4.45095 30.2717 5.83283 30.2717C7.21393 30.2717 7.90577 30.2717 8.45065 29.9771C9.17736 29.5843 9.75479 28.8308 10.0558 27.8825C10.2816 27.1713 10.2816 26.2696 10.2816 24.4664C10.2816 22.6631 10.2806 21.7628 10.0549 21.0516C9.75385 20.1033 9.17643 19.3498 8.44973 18.957C7.9047 18.6624 7.21483 18.6611 5.83294 18.6612C4.45105 18.6612 3.7601 18.6612 3.21507 18.9558C2.48836 19.3486 1.91095 20.1021 1.60993 21.0504Z" stroke="black" stroke-width="2" stroke-linecap="round" stroke-linejoin="round"/>
<path d="M14.7311 7.04974C14.731 8.85254 14.731 9.75463 14.9568 10.4658C15.2578 11.4141 15.8352 12.1676 16.5619 12.5603C17.1069 12.8549 17.7979 12.8549 19.1798 12.8549C20.5608 12.8549 21.2527 12.8549 21.7976 12.5603C22.5243 12.1675 23.1017 11.414 23.4027 10.4657C23.6285 9.75448 23.6285 8.85284 23.6285 7.04957C23.6285 5.24632 23.6275 4.34597 23.4018 3.63475C23.1008 2.68646 22.5234 1.93297 21.7967 1.54018C21.2516 1.24559 20.5617 1.24435 19.1799 1.24437C17.798 1.2444 17.107 1.24441 16.562 1.53901C15.8353 1.93183 15.2579 2.6853 14.9569 3.6336C14.7311 4.34483 14.7311 5.2465 14.7311 7.04974Z" stroke="black" stroke-width="2" stroke-linecap="round" stroke-linejoin="round"/>
<path d="M14.9567 21.0502C14.7309 21.7614 14.7309 22.6631 14.7309 24.4663C14.7309 26.2691 14.7309 27.1712 14.9566 27.8823C15.2576 28.8306 15.835 29.5841 16.5617 29.9769C17.1067 30.2715 17.7977 30.2715 19.1796 30.2715C20.5607 30.2715 21.2525 30.2714 21.7974 29.9769C22.5241 29.5841 23.1015 28.8306 23.4026 27.8823C23.6283 27.1711 23.6283 26.2694 23.6284 24.4661C23.6284 22.6629 23.6274 21.7626 23.4016 21.0513C23.1006 20.103 22.5232 19.3495 21.7965 18.9568C21.2515 18.6622 20.5616 18.6609 19.1797 18.661C17.7978 18.661 17.1069 18.661 16.5618 18.9556C15.8351 19.3484 15.2577 20.1019 14.9567 21.0502Z" stroke="black" stroke-width="2" stroke-linecap="round" stroke-linejoin="round"/>
</svg>
