<svg width="76" height="76" viewBox="0 0 76 76" fill="none" xmlns="http://www.w3.org/2000/svg">
<path d="M0 38C0 17.0132 17.0132 0 38 0C58.9868 0 76 17.0132 76 38V76H38C17.0132 76 0 58.9868 0 38Z" fill="#FE724C"/>
<path d="M26.6726 28.8182V47H24.1513L14.9094 33.6655H14.7408V47H11.9975V28.8182H14.5366L23.7873 42.1705H23.956V28.8182H26.6726ZM35.8383 47.2752C34.4948 47.2752 33.3377 46.9882 32.3671 46.4141C31.4024 45.834 30.6566 45.0202 30.1299 43.9727C29.609 42.9192 29.3486 41.6851 29.3486 40.2706C29.3486 38.8738 29.609 37.6428 30.1299 36.5774C30.6566 35.5121 31.3905 34.6805 32.3316 34.0827C33.2786 33.485 34.3853 33.1861 35.6519 33.1861C36.4213 33.1861 37.1671 33.3133 37.8891 33.5678C38.6112 33.8223 39.2593 34.2218 39.8334 34.7663C40.4075 35.3108 40.8602 36.0181 41.1917 36.8881C41.5231 37.7522 41.6888 38.8028 41.6888 40.0398V40.9808H30.849V38.9922H39.0876C39.0876 38.2938 38.9456 37.6753 38.6615 37.1367C38.3774 36.5922 37.9779 36.1631 37.463 35.8494C36.954 35.5357 36.3562 35.3789 35.6697 35.3789C34.9239 35.3789 34.2729 35.5624 33.7165 35.9293C33.1661 36.2904 32.74 36.7638 32.4381 37.3498C32.1422 37.9298 31.9942 38.5601 31.9942 39.2408V40.7944C31.9942 41.7058 32.154 42.4812 32.4736 43.1204C32.7992 43.7596 33.2519 44.2479 33.8319 44.5852C34.412 44.9167 35.0896 45.0824 35.865 45.0824C36.368 45.0824 36.8267 45.0114 37.241 44.8693C37.6553 44.7214 38.0134 44.5024 38.3153 44.2124C38.6171 43.9223 38.8479 43.5643 39.0077 43.1381L41.5202 43.5909C41.3189 44.3307 40.9579 44.9788 40.4371 45.5352C39.9221 46.0856 39.2741 46.5147 38.4928 46.8224C37.7175 47.1243 36.8327 47.2752 35.8383 47.2752ZM45.9118 33.3636L48.9214 38.6726L51.9577 33.3636H54.8607L50.6082 40.1818L54.8962 47H51.9932L48.9214 41.9041L45.8586 47H42.9466L47.1903 40.1818L42.9999 33.3636H45.9118ZM63.4516 33.3636V35.4943H56.0031V33.3636H63.4516ZM58.0006 30.0966H60.6551V42.9961C60.6551 43.511 60.732 43.8987 60.8859 44.1591C61.0398 44.4136 61.2381 44.5882 61.4807 44.6829C61.7293 44.7717 61.9986 44.8161 62.2886 44.8161C62.5017 44.8161 62.6881 44.8013 62.8479 44.7717C63.0077 44.7421 63.132 44.7184 63.2208 44.7006L63.7002 46.8935C63.5463 46.9527 63.3273 47.0118 63.0432 47.071C62.7591 47.1361 62.404 47.1716 61.9779 47.1776C61.2795 47.1894 60.6285 47.0651 60.0248 46.8047C59.4211 46.5443 58.9328 46.1418 58.5599 45.5973C58.1871 45.0528 58.0006 44.3692 58.0006 43.5465V30.0966Z" fill="white"/>
</svg>
