<svg width="50" height="50" viewBox="0 0 50 50" fill="none" xmlns="http://www.w3.org/2000/svg">
<path d="M0 25C0 11.1929 11.1929 0 25 0C38.8071 0 50 11.1929 50 25C50 38.8071 38.8071 50 25 50H0V25Z" fill="#FC7846"/>
<path d="M16.625 22.4205C16.5644 21.8826 16.3144 21.4659 15.875 21.1705C15.4356 20.8712 14.8826 20.7216 14.2159 20.7216C13.7386 20.7216 13.3258 20.7973 12.9773 20.9489C12.6288 21.0966 12.358 21.3011 12.1648 21.5625C11.9754 21.8201 11.8807 22.1136 11.8807 22.4432C11.8807 22.7197 11.9451 22.9583 12.0739 23.1591C12.2064 23.3598 12.3788 23.5284 12.5909 23.6648C12.8068 23.7973 13.0379 23.9091 13.2841 24C13.5303 24.0871 13.767 24.1591 13.9943 24.2159L15.1307 24.5114C15.5019 24.6023 15.8826 24.7254 16.2727 24.8807C16.6629 25.036 17.0246 25.2405 17.358 25.4943C17.6913 25.7481 17.9602 26.0625 18.1648 26.4375C18.3731 26.8125 18.4773 27.2614 18.4773 27.7841C18.4773 28.4432 18.3068 29.0284 17.9659 29.5398C17.6288 30.0511 17.1383 30.4545 16.4943 30.75C15.8542 31.0455 15.0795 31.1932 14.1705 31.1932C13.2992 31.1932 12.5455 31.0549 11.9091 30.7784C11.2727 30.5019 10.7746 30.1098 10.4148 29.6023C10.0549 29.0909 9.85606 28.4848 9.81818 27.7841H11.5795C11.6136 28.2045 11.75 28.5549 11.9886 28.8352C12.2311 29.1117 12.5398 29.3182 12.9148 29.4545C13.2936 29.5871 13.7083 29.6534 14.1591 29.6534C14.6553 29.6534 15.0966 29.5758 15.483 29.4205C15.8731 29.2614 16.1799 29.0417 16.4034 28.7614C16.6269 28.4773 16.7386 28.1458 16.7386 27.767C16.7386 27.4223 16.6402 27.1402 16.4432 26.9205C16.25 26.7008 15.9867 26.5189 15.6534 26.375C15.3239 26.2311 14.9508 26.1042 14.5341 25.9943L13.1591 25.6193C12.2273 25.3655 11.4886 24.9924 10.9432 24.5C10.4015 24.0076 10.1307 23.3561 10.1307 22.5455C10.1307 21.875 10.3125 21.2898 10.6761 20.7898C11.0398 20.2898 11.5322 19.9015 12.1534 19.625C12.7746 19.3447 13.4754 19.2045 14.2557 19.2045C15.0436 19.2045 15.7386 19.3428 16.3409 19.6193C16.947 19.8958 17.4242 20.2765 17.7727 20.7614C18.1212 21.2424 18.303 21.7955 18.3182 22.4205H16.625ZM21.5014 28.0398L21.4901 25.9659H21.7855L25.2628 22.2727H27.2969L23.331 26.4773H23.0639L21.5014 28.0398ZM19.9389 31V19.3636H21.6378V31H19.9389ZM25.4503 31L22.3253 26.8523L23.4957 25.6648L27.5355 31H25.4503ZM28.3452 31V22.2727H30.044V31H28.3452ZM29.2031 20.9261C28.9077 20.9261 28.6539 20.8277 28.4418 20.6307C28.2334 20.4299 28.1293 20.1913 28.1293 19.9148C28.1293 19.6345 28.2334 19.3958 28.4418 19.1989C28.6539 18.9981 28.9077 18.8977 29.2031 18.8977C29.4986 18.8977 29.7505 18.9981 29.9588 19.1989C30.1709 19.3958 30.277 19.6345 30.277 19.9148C30.277 20.1913 30.1709 20.4299 29.9588 20.6307C29.7505 20.8277 29.4986 20.9261 29.2031 20.9261ZM31.8295 34.2727V22.2727H33.4886V23.6875H33.6307C33.7292 23.5057 33.8712 23.2955 34.0568 23.0568C34.2424 22.8182 34.5 22.6098 34.8295 22.4318C35.1591 22.25 35.5947 22.1591 36.1364 22.1591C36.8409 22.1591 37.4697 22.3371 38.0227 22.6932C38.5758 23.0492 39.0095 23.5625 39.3239 24.233C39.642 24.9034 39.8011 25.7102 39.8011 26.6534C39.8011 27.5966 39.6439 28.4053 39.3295 29.0795C39.0152 29.75 38.5833 30.267 38.0341 30.6307C37.4848 30.9905 36.858 31.1705 36.1534 31.1705C35.6231 31.1705 35.1894 31.0814 34.8523 30.9034C34.5189 30.7254 34.2576 30.517 34.0682 30.2784C33.8788 30.0398 33.733 29.8277 33.6307 29.642H33.5284V34.2727H31.8295ZM33.4943 26.6364C33.4943 27.25 33.5833 27.7879 33.7614 28.25C33.9394 28.7121 34.197 29.0739 34.5341 29.3352C34.8712 29.5928 35.2841 29.7216 35.7727 29.7216C36.2803 29.7216 36.7045 29.5871 37.0455 29.3182C37.3864 29.0455 37.6439 28.6761 37.8182 28.2102C37.9962 27.7443 38.0852 27.2197 38.0852 26.6364C38.0852 26.0606 37.9981 25.5436 37.8239 25.0852C37.6534 24.6269 37.3958 24.2652 37.0511 24C36.7102 23.7348 36.2841 23.6023 35.7727 23.6023C35.2803 23.6023 34.8636 23.7292 34.5227 23.983C34.1856 24.2367 33.9299 24.5909 33.7557 25.0455C33.5814 25.5 33.4943 26.0303 33.4943 26.6364Z" fill="white"/>
</svg>
